PathFileType	4	(X/Y/Z)	OpenSim_Sub01_EMGStiffKnee_Gyro.trc
DataRate	CameraRate	NumFrames	NumMarkers	Units	OrigDataRate	OrigDataStartFrame	OrigNumFrames
100	100	34	8	m	100	1	5567
Frame#	Time	torso_imu_offset_imu	pelvis_imu_offset_imu	tibia_r_imu_offset_imu	femur_r_imu_offset_imu	tibia_l_imu_offset_imu	femur_l_imu_offset_imu	toes_r_imu_offset_imu	toes_l_imu_offset_imu
				X1	Y1	Z1	X2	Y2	Z2	X3	Y3	Z3	X4	Y4	Z4	X5	Y5	Z5	X6	Y6	Z6	X7	Y7	Z7	X8		Y8	Z8	

1	0	-0.08648832	0.06057684	0.02447032	0.01102367	-0.02339064	-0.00347438	0.02065565	0.01047181	-0.00793687	0.01425297	0.01114172	-0.00865426	0.01138961	-0.00193434	-0.00330459	0.04908114	0.00047250	0.01007299	0.00343007	0.00675772	-0.00156033	-0.00047731	0.01052010	-0.00346063
2	0.01000000	-0.10203274	0.06347310	0.01997391	0.00767504	-0.02498124	-0.00612734	0.02209457	0.01089012	-0.00780617	0.01451398	0.01403628	-0.01248177	0.00642665	-0.00194079	-0.00230706	0.03160337	0.00459272	0.01452597	0.00435978	0.00740298	-0.00175550	0.00028669	0.01011394	-0.00347428
3	0.02000000	-0.10935368	0.06485983	0.01668688	0.00184386	-0.02667630	-0.00703767	0.02208987	0.00953635	-0.00652687	0.01526933	0.01380448	-0.01215894	0.00216829	-0.00007868	-0.00166042	0.00282589	0.00300362	0.01570939	0.00444932	0.00763993	-0.00239908	0.00019525	0.00956767	-0.00307014
4	0.03000000	-0.10755787	0.06535416	0.01543179	-0.00682284	-0.02805998	-0.00629792	0.02032141	0.00694178	-0.00436314	0.01499337	0.01014039	-0.00779380	-0.00139309	0.00299512	-0.00126013	-0.02879392	-0.00368926	0.01429965	0.00397117	0.00773411	-0.00344770	-0.00069794	0.00916719	-0.00234742
5	0.04000000	-0.09924295	0.06631610	0.01650730	-0.01770658	-0.02879134	-0.00534357	0.01649144	0.00488465	-0.00250774	0.01266295	0.00420462	-0.00242764	-0.00580655	0.00561830	-0.00054879	-0.05001324	-0.01113428	0.01311491	0.00402002	0.00810307	-0.00467880	-0.00160320	0.00930632	-0.00142041
6	0.05000000	-0.08744173	0.06842206	0.01978227	-0.02980022	-0.02888147	-0.00526656	0.01139222	0.00450833	-0.00175086	0.00764649	-0.00236524	0.00166161	-0.01199148	0.00670490	0.00081658	-0.05269803	-0.01600380	0.01401621	0.00509854	0.00884148	-0.00579511	-0.00200049	0.01009922	-0.00046325
7	0.06000000	-0.07621327	0.07026033	0.02388848	-0.04101595	-0.02938159	-0.00603530	0.00905314	0.00497449	-0.00161547	0.00043743	-0.00662630	0.00468846	-0.01887851	0.00695829	0.00250718	-0.04426029	-0.01829931	0.01585701	0.00588748	0.00907292	-0.00629113	-0.00222709	0.01082065	0.00017317
8	0.07000000	-0.06951760	0.07010260	0.02728693	-0.04913491	-0.03143448	-0.00742016	0.01365800	0.00512097	-0.00143979	-0.00820148	-0.00561999	0.00727859	-0.02504057	0.00736596	0.00409676	-0.03479474	-0.01863423	0.01702901	0.00486616	0.00784650	-0.00567240	-0.00273626	0.01065986	0.00013742
9	0.08000000	-0.06699325	0.06725916	0.02930551	-0.05296702	-0.03467487	-0.00933631	0.02274513	0.00442198	-0.00130285	-0.01659033	0.00023613	0.00931487	-0.02920043	0.00821677	0.00555981	-0.03153072	-0.01756836	0.01733549	0.00254060	0.00578389	-0.00418576	-0.00334446	0.00984848	-0.00044056
10	0.09000000	-0.06495312	0.06184011	0.02993936	-0.05211481	-0.03757691	-0.01181010	0.02873868	0.00284184	-0.00185364	-0.02234398	0.00792587	0.01010878	-0.03019665	0.00926176	0.00717916	-0.03948888	-0.01562048	0.01766572	0.00097625	0.00471663	-0.00264855	-0.00337826	0.00942022	-0.00106041
11	0.10000000	-0.06101697	0.05429207	0.02909645	-0.04712389	-0.03901570	-0.01453522	0.02585662	0.00061475	-0.00327292	-0.02416366	0.01476402	0.00949869	-0.02752012	0.01026455	0.00909443	-0.05977075	-0.01363786	0.01810943	0.00135378	0.00567001	-0.00162956	-0.00260482	0.01004112	-0.00133195
12	0.11000000	-0.05694194	0.04600055	0.02637469	-0.04128149	-0.03914630	-0.01620845	0.01403821	-0.00126066	-0.00430672	-0.02403254	0.01924758	0.00893234	-0.02259119	0.01106715	0.01099608	-0.08200138	-0.01344698	0.01629769	0.00210551	0.00718113	-0.00091545	-0.00213779	0.01122316	-0.00122068
13	0.12000000	-0.05501510	0.03844985	0.02142030	-0.03813159	-0.03832776	-0.01545299	-0.00535854	-0.00173218	-0.00356746	-0.02445296	0.02014650	0.01005730	-0.01712654	0.01153530	0.01248664	-0.09426344	-0.01681108	0.00967868	0.00130819	0.00744697	-0.00017421	-0.00322880	0.01229846	-0.00075686
14	0.13000000	-0.05400659	0.03200539	0.01545994	-0.03747529	-0.03643004	-0.01254941	-0.02557415	-0.00106084	-0.00163747	-0.02661730	0.01704471	0.01305852	-0.01193963	0.01167263	0.01309499	-0.09331008	-0.02183838	-0.00023395	-0.00067899	0.00645912	0.00053847	-0.00546893	0.01309960	0.00004485
15	0.14000000	-0.04998065	0.02617157	0.01093603	-0.03623324	-0.03294692	-0.00905389	-0.03569437	-0.00051819	-0.00061487	-0.03070885	0.01015348	0.01699493	-0.00714863	0.01158881	0.01229355	-0.08256869	-0.02382484	-0.00879784	-0.00174045	0.00559035	0.00086861	-0.00717139	0.01384432	0.00118154
16	0.15000000	-0.04083483	0.02080263	0.00916994	-0.03234366	-0.02780769	-0.00622725	-0.02910363	-0.00089277	-0.00165760	-0.03606528	0.00073660	0.02065479	-0.00294634	0.01130115	0.00988936	-0.06518936	-0.01985213	-0.01249166	-0.00058115	0.00581770	0.00064979	-0.00717828	0.01460015	0.00244257
17	0.16000000	-0.03012088	0.01685819	0.00805886	-0.02698841	-0.02226430	-0.00435505	-0.01227707	-0.00146059	-0.00301425	-0.03958869	-0.00686266	0.02210835	0.00019957	0.01054428	0.00668797	-0.04298810	-0.01252289	-0.01136418	0.00152149	0.00683686	0.00029576	-0.00600089	0.01495886	0.00299900
18	0.17000000	-0.02221782	0.01538601	0.00503371	-0.02183880	-0.01772647	-0.00351431	0.00608140	-0.00129818	-0.00255566	-0.03792095	-0.00805444	0.01946347	0.00181764	0.00903594	0.00364160	-0.01776422	-0.00537547	-0.00626912	0.00291729	0.00812606	0.00029380	-0.00445268	0.01448325	0.00199950
19	0.18000000	-0.01824004	0.01569514	0.00002080	-0.01691577	-0.01430498	-0.00335891	0.02013381	-0.00068208	-0.00054912	-0.03054838	-0.00307851	0.01337776	0.00214039	0.00702341	0.00113456	0.00524246	-0.00067583	-0.00022813	0.00349506	0.00945452	0.00062628	-0.00325038	0.01361890	-0.00003189
20	0.19000000	-0.01678889	0.01575658	-0.00513301	-0.01097036	-0.01111089	-0.00321720	0.02624985	-0.00081209	0.00089392	-0.01914687	0.00410805	0.00647137	0.00194222	0.00516132	-0.00088595	0.01814651	0.00029053	0.00206967	0.00432788	0.01081546	0.00088711	-0.00303601	0.01349054	-0.00151283
21	0.20000000	-0.01641506	0.01413176	-0.00905864	-0.00341378	-0.00744742	-0.00262994	0.02283449	-0.00234075	0.00042434	-0.00537429	0.01012747	0.00113668	0.00202638	0.00379866	-0.00242896	0.01685358	-0.00244045	-0.00219247	0.00598414	0.01209987	0.00083536	-0.00405053	0.01476428	-0.00144272
22	0.21000000	-0.01571082	0.01123875	-0.01195354	0.00428394	-0.00326530	-0.00179386	0.01417150	-0.00422377	-0.00090081	0.00933246	0.01360742	-0.00106083	0.00324038	0.00234505	-0.00333995	0.00873633	-0.00498125	-0.01014035	0.00744208	0.01287803	0.00075079	-0.00534894	0.01669146	-0.00063052
23	0.22000000	-0.01339727	0.00779749	-0.01423745	0.01038302	0.00133187	-0.00102504	0.00554505	-0.00518090	-0.00166456	0.02354861	0.01367915	0.00110871	0.00637739	0.00010433	-0.00346546	0.00292685	-0.00306035	-0.01794186	0.00748485	0.01271204	0.00098487	-0.00583277	0.01830567	-0.00017040
24	0.23000000	-0.01000822	0.00390803	-0.01532258	0.01480286	0.00574397	-0.00061025	0.00094467	-0.00509561	-0.00172114	0.03542023	0.01146094	0.00614092	0.01129552	-0.00260409	-0.00312003	0.00316042	0.00268437	-0.02317537	0.00637546	0.01192917	0.00152193	-0.00538792	0.01929634	-0.00041838
25	0.24000000	-0.00747226	-0.00080645	-0.01384626	0.01873960	0.00898900	-0.00081351	0.00336176	-0.00474689	-0.00190302	0.04276389	0.00959991	0.01042737	0.01713289	-0.00467933	-0.00297838	0.00901738	0.00783707	-0.02450574	0.00551571	0.01144537	0.00206373	-0.00465798	0.01985766	-0.00116218
26	0.25000000	-0.00692307	-0.00639049	-0.00932271	0.02284562	0.01052415	-0.00167867	0.01373953	-0.00454493	-0.00266981	0.04459381	0.00977777	0.01137971	0.02281854	-0.00539303	-0.00354167	0.01938284	0.00958454	-0.02159416	0.00579920	0.01179385	0.00236755	-0.00415006	0.02010069	-0.00209818
27	0.26000000	-0.00702570	-0.01186478	-0.00393116	0.02605974	0.01114090	-0.00259709	0.02701156	-0.00373578	-0.00329830	0.04350819	0.01069070	0.00960148	0.02671533	-0.00518367	-0.00476784	0.03139369	0.01016450	-0.01697916	0.00652237	0.01232546	0.00237729	-0.00390787	0.01985086	-0.00269485
28	0.27000000	-0.00606237	-0.01614093	-0.00019967	0.02710049	0.01185866	-0.00287830	0.03721311	-0.00144953	-0.00290218	0.04272191	0.01061228	0.00629251	0.02718161	-0.00467444	-0.00649873	0.04185259	0.01254076	-0.01361194	0.00674398	0.01222807	0.00208416	-0.00388230	0.01892251	-0.00242889
29	0.28000000	-0.00341625	-0.01933073	0.00149574	0.02612984	0.01341614	-0.00241299	0.04156328	0.00169758	-0.00142615	0.04476320	0.00975176	0.00274524	0.02407461	-0.00402527	-0.00834131	0.04739749	0.01656905	-0.01265824	0.00638493	0.01152198	0.00167136	-0.00391738	0.01775401	-0.00153110
30	0.29000000	0.00068178	-0.02246957	0.00243548	0.02442081	0.01633549	-0.00153921	0.03973281	0.00394571	0.00054537	0.05162981	0.00980785	0.00032309	0.01840582	-0.00303964	-0.00972180	0.04454139	0.01971316	-0.01390929	0.00602964	0.01086817	0.00146981	-0.00377503	0.01726374	-0.00081259
31	0.30000000	0.00573137	-0.02627680	0.00362879	0.02302838	0.02040681	-0.00061379	0.03237233	0.00406597	0.00247943	0.06283174	0.01169695	0.00000734	0.01171434	-0.00183517	-0.01010500	0.03223578	0.02029842	-0.01700985	0.00604713	0.01076624	0.00168945	-0.00337126	0.01792838	-0.00082674
32	0.31000000	0.01049620	-0.03046198	0.00515245	0.02227476	0.02326163	-0.00001523	0.02285681	0.00249456	0.00404486	0.07052744	0.01389692	0.00163844	0.00701886	-0.00149010	-0.00908421	0.01668747	0.01939284	-0.02127445	0.00611583	0.01118740	0.00216946	-0.00308631	0.01887543	-0.00131679
33	0.32000000	0.01371026	-0.03454130	0.00692229	0.02231965	0.02231866	-0.00009760	0.01495570	0.00000026	0.00496992	0.06609830	0.01456667	0.00480989	0.00734940	-0.00310720	-0.00637533	0.00515534	0.01850175	-0.02588909	0.00582000	0.01199266	0.00268884	-0.00334567	0.01905820	-0.00188093
34	0.33000000	0.01569856	-0.03793098	0.00902516	0.02291851	0.01778397	-0.00078977	0.01080476	-0.00227822	0.00531339	0.04963641	0.01383882	0.00857681	0.01181271	-0.00549956	-0.00317314	0.00056846	0.01808620	-0.02902987	0.00524622	0.01285568	0.00315141	-0.00396780	0.01855654	-0.00218805
